<svg width="400" height="100" viewBox="0 0 400 100" fill="none" xmlns="http://www.w3.org/2000/svg">
<mask id="mask0_9531_22" style="mask-type:alpha" maskUnits="userSpaceOnUse" x="0" y="0" width="400" height="100">
<path d="M0.299933 82.0774C8.97573 82.0774 23.5876 82.0774 38.6561 82.0774C38.6561 74.7715 38.6561 66.5523 39.1127 62.8993C42.3091 62.4427 51.8981 62.4427 56.0077 62.8993C56.0077 67.4655 56.0077 75.2281 56.0077 82.0774C73.8159 82.0774 89.7976 82.0774 94.8205 82.0774C95.2771 86.187 95.2771 91.6665 94.8205 96.2327C85.2314 96.6893 13.5419 96.6893 0.756555 96.2327C-0.156688 92.1231 -0.156688 86.187 0.299933 82.0774ZM6.23601 4.45184C16.7383 3.99522 76.5556 3.99522 87.5146 4.45184C87.9712 8.56143 87.9712 15.4107 87.5146 19.5203C79.752 19.5203 31.3502 19.5203 23.131 19.5203C23.131 24.5432 23.131 37.3285 23.131 41.8948C31.8068 41.8948 81.5785 41.8948 89.341 41.8948C89.7977 46.0043 89.7977 53.3103 89.341 56.5066C80.2086 56.9633 16.7383 56.9633 5.77939 56.5066C5.32276 43.7212 5.77939 16.7806 6.23601 4.45184Z" fill="black"/>
<path d="M103.039 2.16895C113.542 1.71233 146.875 1.71233 157.834 2.16895C158.291 6.27854 158.291 11.758 157.834 15.8676C150.071 15.8676 127.697 15.8676 119.478 15.8676C119.478 20.8904 119.478 28.653 119.478 33.2192C128.154 33.2192 154.181 33.2192 162.4 33.2192C162.857 37.3288 162.857 43.7215 162.4 46.9178C153.268 47.3744 112.628 47.3744 103.039 46.9178C102.126 34.589 102.126 14.9543 103.039 2.16895ZM106.692 56.9635C113.542 56.5068 185.231 56.5068 187.971 56.9635C188.428 65.6393 188.428 91.21 187.971 99.4292C180.665 99.8858 114.912 100.342 106.692 99.4292C106.236 87.1004 106.236 67.9224 106.692 56.9635ZM171.989 85.7306C171.989 82.5342 171.989 74.7717 171.989 71.1187C166.053 70.6621 129.98 71.1187 122.674 71.1187C122.674 74.3151 122.218 81.621 122.674 85.7306C127.697 85.7306 167.423 85.7306 171.989 85.7306ZM171.989 0.342466C175.186 -0.114155 184.318 -0.114155 188.428 0.342466C188.428 4.45205 188.428 10.3881 188.428 16.7808C192.537 16.7808 195.733 16.7808 198.017 16.7808C198.473 20.8904 198.473 27.2831 198.017 31.3927C196.19 31.3927 192.994 31.8493 188.428 31.8493C188.428 40.0685 188.428 47.3744 188.428 51.484C185.231 51.9406 176.099 51.9406 171.989 51.484C171.533 42.8082 171.533 8.56164 171.989 0.342466Z" fill="black"/>
<path d="M201.67 82.0774C210.346 82.0774 224.958 82.0774 240.483 82.0774C240.483 74.7715 240.483 66.5523 240.483 62.8993C243.679 62.4427 253.268 62.4427 257.378 62.8993C257.378 67.4655 257.378 75.2281 257.378 82.0774C275.186 82.0774 291.168 82.0774 296.191 82.0774C296.647 86.187 296.647 91.6665 296.191 96.2327C286.602 96.6893 214.912 96.6893 202.127 96.2327C201.213 92.1231 201.213 86.187 201.67 82.0774ZM207.606 4.45184C218.108 3.99522 277.926 3.99522 288.885 4.45184C289.341 8.56143 289.341 15.4107 288.885 19.5203C281.122 19.5203 232.72 19.5203 224.501 19.5203C224.501 24.5432 224.501 37.3285 224.501 41.8948C233.177 41.8948 282.949 41.8948 290.711 41.8948C291.168 46.0043 291.168 53.3103 290.711 56.5066C281.579 56.9633 218.108 56.9633 207.15 56.5066C207.15 43.7212 207.15 16.7806 207.606 4.45184Z" fill="black"/>
<path d="M304.409 2.16895C314.912 1.71233 348.245 1.71233 359.204 2.16895C359.661 6.27854 359.661 11.758 359.204 15.8676C351.441 15.8676 329.067 15.8676 320.848 15.8676C320.848 20.8904 320.848 28.653 320.848 33.2192C329.524 33.2192 355.551 33.2192 363.77 33.2192C364.227 37.3288 364.227 43.7215 363.77 46.9178C354.638 47.3744 314.455 47.3744 304.409 46.9178C303.953 34.589 303.953 14.9543 304.409 2.16895ZM308.519 56.9635C315.368 56.5068 387.058 56.5068 389.798 56.9635C390.254 65.6393 390.254 91.21 389.798 99.4292C382.492 99.8858 316.738 100.342 308.519 99.4292C307.606 87.1004 308.062 67.9224 308.519 56.9635ZM373.816 85.7306C374.272 82.5342 374.272 74.7717 373.816 71.1187C367.88 70.6621 331.807 71.1187 324.501 71.1187C324.044 74.3151 324.044 81.621 324.501 85.7306C329.524 85.7306 369.25 85.7306 373.816 85.7306ZM373.359 0.342466C376.556 -0.114155 385.688 -0.114155 389.798 0.342466C389.798 4.45205 389.798 10.3881 389.798 16.7808C393.907 16.7808 397.103 16.7808 399.387 16.7808C399.843 20.8904 399.843 27.2831 399.387 31.3927C397.56 31.3927 394.364 31.8493 389.798 31.8493C389.798 40.0685 389.798 47.3744 389.341 51.484C386.145 51.9406 377.012 51.9406 372.903 51.484C372.903 42.8082 372.903 8.56164 373.359 0.342466Z" fill="black"/>
</mask>
<g mask="url(#mask0_9531_22)">
<rect width="400" height="100" fill="url(#paint0_linear_9531_22)"/>
</g>
<defs>
<linearGradient id="paint0_linear_9531_22" x1="-4" y1="54.5" x2="394.5" y2="50" gradientUnits="userSpaceOnUse">
<stop stop-color="#FFC979"/>
<stop offset="0.505208" stop-color="#FF884B"/>
<stop offset="1" stop-color="#FF4D4D"/>
</linearGradient>
</defs>
</svg>
